# xmcd
#
# Track frame offsets:
#	150
#	15191
#	29358
#	44062
#	57743
#	72497
#	87957
#	101520
#	119191
#	133390
#	149894
#	167604
#
# Disc length: 2493 seconds
#
# Revision: 0
# Processed by: cddbd v1.5.2PL0 Copyright (c) Steve Scherf et al.
# Submitted via: dBpowerAMP V4.0
#
DISCID=bd09bb0c
DTITLE=João Marcos e Marcell - João Marcus e Marcell
DYEAR=2009
DGENRE=Sertanejo
TTITLE0=Cai Fora
TTITLE1=Estrela Cadente
TTITLE2=Volta Andorinha
TTITLE3=A procura de um anjo
TTITLE4=Na Gandaia
TTITLE5=Paixão de madrugada
TTITLE6=festa no boteco
TTITLE7=Fogo cruzado
TTITLE8=Pinga na gela
TTITLE9=Por quanto tempo
TTITLE10=Chuvas de verão
TTITLE11=Filho Adotivo
EXTD=
EXTT0=
EXTT1=
EXTT2=
EXTT3=
EXTT4=
EXTT5=
EXTT6=
EXTT7=
EXTT8=
EXTT9=
EXTT10=
EXTT11=
PLAYORDER=
